<svg id="Layer_1" data-name="Layer 1" xmlns="http://www.w3.org/2000/svg" viewBox="0 0 502.05 504.34"><path d="M275.66,411.49l71.68,71.68c1.68,1.68,3.92,1.68,5,0,1.68-1.68,1.68-3.92,0-5L280.7,406.45c-1.68-1.68-3.92-1.68-5,0C274.54,407.57,274.54,409.81,275.66,411.49Z"/><path d="M347.9,483.17l-72.24-71.68c-1.68-1.68-1.68-3.92,0-5,1.68-1.68,3.93-1.68,5,0l71.68,71.68c1.68,1.68,1.68,3.93,0,5a3.41,3.41,0,0,1-4.48,0Z"/><path d="M352.94,478.13,280.7,406.45c-1.68-1.68-3.92-1.68-5,0-1.68,1.68-1.68,3.92,0,5l71.68,71.68c1.68,1.68,3.92,1.68,5,0,1.68-1.68,1.68-3.92.56-5Z"/><path d="M226.94,407l43.12,91.84c1.12,1.68,0,3.92-1.68,5s-3.92,0-5-1.68l-43.12-91.84c-1.12-1.68,0-3.92,1.68-5a4.52,4.52,0,0,1,5,1.68Z"/><path d="M240.38,407l51,87.92a3.65,3.65,0,1,1-6.16,3.92l-51-88.47a3.65,3.65,0,0,1,1.12-5,4.5,4.5,0,0,1,5,1.67Z"/><path d="M253.82,406.45l58.24,83.44a3.65,3.65,0,1,1-6.16,3.92l-57.68-82.88a3.65,3.65,0,0,1,1.12-5,3,3,0,0,1,4.48.56Z"/><path d="M267.82,406.45l65.52,77.84c1.12,1.68,1.12,3.92-.56,5s-3.92,1.12-5-.56l-65.52-77.84c-1.12-1.68-1.12-3.92.56-5,1.12-1.12,3.36-1.12,5,.56Z"/><path d="M280.7,406.45l71.68,71.68c1.68,1.68,1.68,3.92,0,5-1.68,1.68-3.92,1.68-5,0l-71.68-71.68c-1.68-1.68-1.68-3.92,0-5C277.34,404.77,279.58,404.77,280.7,406.45Z"/><path d="M328.86,393l91.84,43.12c1.68,1.12,3.92,0,5-1.68s0-3.92-1.68-5l-92.4-42.56c-1.68-1.12-3.92,0-5,1.68a3.8,3.8,0,0,0,2.24,4.48Z"/><path d="M420.7,436.13,328.86,393c-1.68-1.12-2.8-2.8-1.68-5,1.12-1.68,2.8-2.8,5-1.68l91.84,43.12c1.68,1.12,2.8,2.8,1.68,5C424.62,436.13,422.94,437.25,420.7,436.13Z"/><path d="M424.06,429.41l-92.4-42.56c-1.68-1.12-3.92,0-5,1.68s0,3.92,1.68,5l91.84,43.12c1.68,1.12,3.93,0,5-1.68,1.12-2.24.56-4.48-1.12-5.6Z"/><path d="M281.26,406.45l71.68,71.68c1.68,1.68,1.68,3.92,0,5-1.68,1.68-3.92,1.68-5,0l-71.68-71.68c-1.68-1.68-1.68-3.92,0-5C277.34,404.77,279.58,404.77,281.26,406.45Z"/><path d="M293.58,401.41l77.84,65.52c1.68,1.12,1.68,3.36.56,5s-3.36,1.68-5,.56L289.1,407c-1.68-1.12-1.68-3.36-.56-5C290.22,400.29,292.46,400.29,293.58,401.41Z"/><path d="M306.46,396.37l83.44,58.24a3.65,3.65,0,1,1-3.92,6.16L302.54,402a3.65,3.65,0,0,1-1.12-5,4.17,4.17,0,0,1,5-.56Z"/><path d="M319.34,391.33l87.92,51a3.65,3.65,0,0,1-3.91,6.16l-87.93-51a3.66,3.66,0,0,1-1.12-5C315.42,391.33,317.66,390.22,319.34,391.33Z"/><path d="M331.66,386.85,423.5,430c1.68,1.12,2.8,2.8,1.68,5-1.12,1.68-2.8,2.8-5,1.68L328.3,393.57c-1.68-1.12-2.8-2.8-1.68-5,1.12-1.68,3.36-2.79,5-1.68Z"/><path d="M372,358.29l101.36,9c2.24,0,3.92-1.12,3.92-3.36S476.14,360,473.9,360l-101.36-9c-2.23,0-3.92,1.12-3.92,3.36,0,1.68,1.68,3.92,3.36,3.92Z"/><path d="M473.34,367.25l-101.36-9c-2.24,0-3.36-1.68-3.36-3.92s1.68-3.36,3.92-3.36l101.36,9c2.24,0,3.36,1.68,3.36,3.92C477.26,365.57,475,367.25,473.34,367.25Z"/><path d="M473.9,360l-101.36-9c-2.24,0-3.92,1.12-3.92,3.36s1.12,3.92,3.36,3.92l101.36,9c2.24,0,3.92-1.12,3.92-3.36S476.14,360,473.9,360Z"/><path d="M331.66,386.85,423.5,430c1.68,1.12,2.8,2.8,1.68,5-1.12,1.68-2.8,2.8-5,1.68L328.3,393.57c-1.68-1.12-2.8-2.8-1.68-5,1.12-1.68,3.36-2.79,5-1.68Z"/><path d="M341.74,377.89l95.76,34.72a3.54,3.54,0,1,1-2.24,6.72L339.5,384.61a3.81,3.81,0,0,1-2.24-4.48,3.34,3.34,0,0,1,4.48-2.24Z"/><path d="M352.38,368.93l98,26.32a3.74,3.74,0,1,1-1.68,7.28l-98-26.88a4.43,4.43,0,0,1-2.8-4.48,3.81,3.81,0,0,1,4.48-2.24Z"/><path d="M362.46,360,462.7,377.89c1.68.56,3.36,2.24,2.8,3.93s-2.24,3.36-3.92,2.8L361.34,366.7c-1.68-.56-3.36-2.24-2.8-3.93A3,3,0,0,1,362.46,360Z"/><path d="M372.54,351l101.36,9c2.24,0,3.36,1.68,3.36,3.93s-1.68,3.35-3.92,3.35l-101.36-9c-2.24,0-3.36-1.68-3.36-3.92a4.09,4.09,0,0,1,3.92-3.36Z"/><path d="M401.1,310.13l98-26.32a3.74,3.74,0,1,0-1.68-7.28l-98,26.32a4.43,4.43,0,0,0-2.8,4.48,3.46,3.46,0,0,0,4.48,2.8Z"/><path d="M499.1,283.81l-98,26.32a3.74,3.74,0,1,1-1.68-7.28l98-25.76a3.68,3.68,0,0,1,4.48,2.8c.57,1.68-.56,3.36-2.8,3.92Z"/><path d="M497.42,277.09l-98,26.32a3.74,3.74,0,1,0,1.68,7.28l98-26.32a4.42,4.42,0,0,0,2.8-4.48,3.68,3.68,0,0,0-4.48-2.8Z"/><path d="M373.1,351l101.36,9c2.24,0,3.36,1.68,3.36,3.93s-1.68,3.35-3.92,3.35l-101.36-9c-2.24,0-3.36-1.68-3.36-3.92s1.68-3.92,3.92-3.36Z"/><path d="M379.26,339.25H480.62a3.36,3.36,0,0,1,0,6.72H379.26a3.23,3.23,0,0,1-3.36-3.36A3.61,3.61,0,0,1,379.26,339.25Z"/><path d="M386,326.93l101.36-9c2.24,0,3.92,1.12,3.92,3.36s-1.12,3.92-3.36,3.92l-101.36,9c-2.23,0-3.92-1.12-3.92-3.36a3.74,3.74,0,0,1,3.36-3.92Z"/><path d="M392.7,315.17l100.24-17.92a3.41,3.41,0,0,1,1.12,6.73L393.82,321.9a3.29,3.29,0,0,1-3.92-2.8,3,3,0,0,1,2.8-3.93Z"/><path d="M398.86,303.41l98.56-26.32a3.74,3.74,0,1,1,1.68,7.28l-98,26.32a3.67,3.67,0,0,1-4.48-2.8,3.54,3.54,0,0,1,2.24-4.48Z"/><path d="M411.74,255.81l83.44-58.24a3.65,3.65,0,0,0-3.92-6.16l-84,58.24a3.65,3.65,0,0,0-1.12,5c1.68,1.68,3.92,2.24,5.6,1.12Z"/><path d="M495.18,197.57l-83.44,58.24a3.65,3.65,0,1,1-3.92-6.16l83.44-58.24a3.65,3.65,0,0,1,5,1.12A5.37,5.37,0,0,1,495.18,197.57Z"/><path d="M490.7,191.41l-83.44,58.24a3.65,3.65,0,1,0,3.92,6.16l83.44-58.24a3.65,3.65,0,0,0-3.92-6.16Z"/><path d="M398.86,303.41l98.56-26.32a3.74,3.74,0,1,1,1.68,7.28l-98,26.32a3.67,3.67,0,0,1-4.48-2.8,3.54,3.54,0,0,1,2.24-4.48Z"/><path d="M401.1,290l95.76-34.72a3.54,3.54,0,0,1,2.25,6.72l-95.77,34.72A3.54,3.54,0,1,1,401.1,290Z"/><path d="M403.34,276.53l91.84-43.12c1.68-1.12,3.92,0,5,1.68s0,3.92-1.68,5L406.7,283.25c-1.68,1.12-3.92,0-5-1.68a3.53,3.53,0,0,1,1.68-5Z"/><path d="M405.58,263.09l87.92-51a3.65,3.65,0,0,1,3.92,6.16l-88.48,51a3.64,3.64,0,0,1-5-1.12q-.86-3.36,1.67-5Z"/><path d="M407.26,249.65l83.44-58.24a3.65,3.65,0,0,1,3.92,6.16l-82.88,58.24a3.65,3.65,0,0,1-5-1.12,4.17,4.17,0,0,1,.56-5Z"/><path d="M402.78,200.37,461,116.93a3.65,3.65,0,0,0-6.16-3.92l-57.68,83.44a3.65,3.65,0,0,0,1.12,5c1.12,1.12,3.36.56,4.48-1.12Z"/><path d="M461.58,116.93l-58.8,83.44a3.65,3.65,0,0,1-6.16-3.91L454.86,113a3.66,3.66,0,0,1,5-1.12c2.24,1.68,2.8,3.92,1.68,5Z"/><path d="M455.42,113l-58.24,83.44a3.65,3.65,0,1,0,6.16,3.92l58.24-83.44a3.65,3.65,0,0,0-6.16-3.92Z"/><path d="M407.82,249.65l83.44-58.24a3.65,3.65,0,0,1,3.92,6.16l-83.44,57.68a3.64,3.64,0,0,1-5-1.12c-1.12-1.12-.56-3.36,1.12-4.48Z"/><path d="M405,236.21l77.84-65.52c1.68-1.12,3.92-1.12,5,.56s1.12,3.92-.56,5L409.5,241.81c-1.68,1.12-3.92,1.12-5-.56A3.6,3.6,0,0,1,405,236.21Z"/><path d="M402.22,222.77l71.68-71.68c1.68-1.68,3.92-1.68,5,0,1.68,1.68,1.68,3.92,0,5l-71.68,71.68c-1.68,1.68-3.92,1.68-5,0a4.2,4.2,0,0,1,0-5Z"/><path d="M399.42,209.33l65.52-77.84c1.12-1.68,3.36-1.68,5-.56s1.68,3.36.56,5L405,213.81c-1.12,1.68-3.36,1.68-5,.56a4.17,4.17,0,0,1-.56-5Z"/><path d="M397.18,196.45,455.42,113a3.65,3.65,0,0,1,6.16,3.92l-58.8,83.44a3.66,3.66,0,0,1-5,1.13,4.19,4.19,0,0,1-.56-5.05Z"/><path d="M375.9,151.65l26.32-98A3.74,3.74,0,0,0,394.94,52l-26.32,98a3.68,3.68,0,0,0,2.8,4.48A3.46,3.46,0,0,0,375.9,151.65Z"/><path d="M402.22,53.65l-26.32,98a3.74,3.74,0,1,1-7.28-1.68l26.32-98a4.43,4.43,0,0,1,4.48-2.8A3.46,3.46,0,0,1,402.22,53.65Z"/><path d="M395.5,51.41l-26.32,98a3.74,3.74,0,1,0,7.28,1.68l25.76-97.44a3.68,3.68,0,0,0-2.8-4.48,3.19,3.19,0,0,0-3.92,2.24Z"/><path d="M397.18,196.45,455.42,113a3.65,3.65,0,0,1,6.16,3.92l-58.8,83.44a3.66,3.66,0,0,1-5,1.13,4.19,4.19,0,0,1-.56-5.05Z"/><path d="M389.9,184.69l51-87.92a3.65,3.65,0,1,1,6.16,3.92l-50.39,87.92a3.66,3.66,0,0,1-5,1.13,4.52,4.52,0,0,1-1.69-5.05Z"/><path d="M383.18,172.93,426.3,81.09c1.12-1.68,2.8-2.8,5-1.68,1.68,1.12,2.8,2.8,1.68,5L389.9,176.29c-1.12,1.68-2.8,2.8-5,1.68-1.68-1.12-2.8-3.36-1.68-5Z"/><path d="M375.9,161.17l34.72-95.76a3.54,3.54,0,1,1,6.72,2.24l-34.72,95.76a3.8,3.8,0,0,1-4.48,2.24A3.54,3.54,0,0,1,375.9,161.17Z"/><path d="M369.18,150,395.5,52a3.74,3.74,0,1,1,7.28,1.68l-26.88,98a4.43,4.43,0,0,1-4.48,2.8,3.81,3.81,0,0,1-2.24-4.48Z"/><path d="M333.9,114.69l-9-100.8c0-2.24-1.67-3.36-3.92-3.36s-3.36,1.68-3.36,3.92l9,101.36c0,2.24,1.68,3.36,3.93,3.36a4.26,4.26,0,0,0,3.35-4.48Z"/><path d="M324.94,13.89l9,101.36c0,2.24-1.12,3.93-3.36,3.93s-3.92-1.13-3.92-3.36l-9-101.36c0-2.24,1.12-3.93,3.36-3.93s3.92,1.13,3.92,3.37Z"/><path d="M317.66,14.45l9,101.36c0,2.24,1.68,3.36,3.92,3.36s3.36-1.68,3.36-3.92l-9-101.36c0-2.24-1.68-3.36-3.92-3.36a3.74,3.74,0,0,0-3.36,3.92Z"/><path d="M369.18,149.41l26.32-98a3.74,3.74,0,1,1,7.28,1.68L375.9,151.65a4.43,4.43,0,0,1-4.48,2.8,4.52,4.52,0,0,1-2.24-5Z"/><path d="M358.54,141,376.46,40.77c.56-1.68,2.24-3.36,3.93-2.8s3.36,2.24,2.8,3.92L365.26,142.13c-.55,1.68-2.23,3.36-3.92,2.8a3.05,3.05,0,0,1-2.8-3.92Z"/><path d="M347.9,132.61l9-101.36c0-2.24,1.68-3.36,3.92-3.36s3.36,1.68,3.36,3.92l-9,101.36c0,2.24-1.68,3.36-3.92,3.36C349,136,347.34,134.29,347.9,132.61Z"/><path d="M337.26,124.21V22.29a3.36,3.36,0,0,1,6.72,0V123.65a3.23,3.23,0,0,1-3.36,3.36c-1.67.56-3.36-1.12-3.36-2.8Z"/><path d="M326.62,115.81l-9-101.36c0-2.24,1.12-3.92,3.36-3.92s3.92,1.12,3.92,3.36l9,101.36c0,2.24-1.12,3.92-3.36,3.92C328.86,119.17,327.18,117.49,326.62,115.81Z"/><path d="M281.82,94.53,239.26,2.69c-1.12-1.68-2.8-2.8-5-1.68-1.68,1.12-2.8,2.8-1.68,5l43.12,91.84c1.12,1.68,2.8,2.8,5,1.68,1.12-1.12,2.24-2.8,1.12-5Z"/><path d="M239.26,2.69l43.12,91.84c1.12,1.68,0,3.92-1.68,5s-3.92,0-5-1.68L232.54,5.49c-1.12-1.68,0-3.92,1.68-5,1.68-.56,3.92.56,5,2.24Z"/><path d="M232.54,5.49l43.12,91.84c1.12,1.68,2.8,2.8,5,1.68,1.68-1.12,2.8-2.8,1.68-5L239.26,2.69c-1.12-1.68-2.8-2.8-5-1.68a3.1,3.1,0,0,0-1.68,4.48Z"/><path d="M326.62,115.25l-9-101.36c0-2.24,1.12-3.92,3.36-3.92s3.92,1.12,3.92,3.36l9,101.36c0,2.24-1.12,3.92-3.36,3.92A4.09,4.09,0,0,1,326.62,115.25Z"/><path d="M313.74,110.77,296.38,11.09A3.41,3.41,0,0,1,303.11,10L321,110.21a3.29,3.29,0,0,1-2.8,3.92,4.26,4.26,0,0,1-4.49-3.36Z"/><path d="M300.86,106.29l-26.32-98a3.74,3.74,0,1,1,7.28-1.68l26.32,98a3.74,3.74,0,0,1-7.28,1.68Z"/><path d="M288,102.37,253.26,6.61a3.81,3.81,0,0,1,2.24-4.48A3.81,3.81,0,0,1,260,4.37l34.72,95.76a3.54,3.54,0,0,1-6.72,2.24Z"/><path d="M275.66,97.89,232.54,5.49c-1.12-1.68,0-3.92,1.68-5s3.92,0,5,1.68L282.38,94c1.12,1.68,0,3.92-1.68,5-2.24,1.12-4.48.56-5-1.12Z"/><path d="M226.38,93.41,154.14,21.73c-1.68-1.68-3.92-1.68-5,0-1.68,1.68-1.68,3.92,0,5l71.68,71.68c1.68,1.68,3.93,1.68,5,0,1.68-1.12,1.68-3.36.56-5Z"/><path d="M154.14,21.73l71.68,71.68c1.68,1.68,1.68,3.93,0,5-1.68,1.68-3.92,1.68-5,0L149.1,26.77c-1.68-1.68-1.68-3.92,0-5s3.92-1.12,5,0Z"/><path d="M149.1,26.77l71.68,71.68c1.68,1.68,3.92,1.68,5,0,1.68-1.68,1.68-3.92,0-5L154.14,21.73c-1.67-1.68-3.92-1.68-5,0s-1.13,3.92,0,5Z"/><path d="M275.1,97.89,232.54,5.49c-1.12-1.68,0-3.92,1.68-5s3.92,0,5,1.68L282.38,94c1.12,1.68,0,3.92-1.68,5-2.24,1.12-4.48.56-5.6-1.12Z"/><path d="M261.66,97.89,210.7,10a3.65,3.65,0,0,1,6.16-3.92l51,88.48a3.65,3.65,0,0,1-1.12,5,4.52,4.52,0,0,1-5-1.68Z"/><path d="M247.66,98.45,189.42,15a3.65,3.65,0,0,1,6.16-3.92l58.24,83.44a3.65,3.65,0,0,1-1.12,5c-1.12.56-3.92.56-5-1.12Z"/><path d="M234.22,98.45l-65-77.84c-1.12-1.68-1.12-3.92.56-5s3.92-1.12,5,.56l65,77.84c1.12,1.68,1.12,3.92-.56,5-1.12,1.12-3.36,1.12-5-.56Z"/><path d="M220.78,98.45,149.1,26.77c-1.68-1.68-1.68-3.92,0-5,1.68-1.68,3.92-1.68,5,0l71.68,71.68c1.68,1.68,1.68,3.93,0,5-1.12,1.68-3.36,1.68-5,0Z"/><path d="M173.18,111.89,81.34,68.77c-1.68-1.12-3.92,0-5,1.68s0,3.92,1.68,5l92.4,42.56c1.68,1.12,3.92,0,5-1.68a3.34,3.34,0,0,0-2.24-4.48Z"/><path d="M81.34,68.77l91.84,43.12c1.68,1.12,2.8,2.8,1.68,5-1.12,1.68-2.8,2.8-5,1.68L78,75.49c-1.68-1.12-2.8-2.8-1.68-5,1.12-1.68,3.36-2.8,5-1.68Z"/><path d="M78.54,75.49l91.84,42.56c1.68,1.13,3.92,0,5-1.68s0-3.92-1.68-5L81.9,68.21c-1.68-1.12-3.92,0-5,1.68-1.12,2.24-.56,4.48,1.68,5.6Z"/><path d="M220.78,98.45,149.1,26.77c-1.68-1.68-1.68-3.92,0-5,1.68-1.68,3.92-1.68,5,0l71.68,71.68c1.68,1.68,1.68,3.93,0,5-1.12,1.68-3.36,1.68-5,0Z"/><path d="M208.46,103.49l-77.84-65c-1.68-1.12-1.68-3.36-.56-5s3.36-1.68,5-.56l77.84,65.52c1.68,1.12,1.68,3.36.56,5-1.12,1.12-3.36,1.12-5,0Z"/><path d="M195.58,108.53,112.14,50.29a3.65,3.65,0,0,1,3.92-6.16l83.44,58.24a3.65,3.65,0,0,1-3.92,6.16Z"/><path d="M182.7,113.57l-87.92-51a3.65,3.65,0,1,1,3.92-6.16l87.92,51a3.65,3.65,0,0,1,1.12,5c-1.12,1.12-3.36,2.24-5,1.12Z"/><path d="M170.38,118.05,78.54,74.93c-1.68-1.12-2.8-2.8-1.68-5,1.12-1.68,2.8-2.8,5-1.68l91.84,43.12c1.68,1.12,2.8,2.8,1.68,5-1.12,1.68-3.36,2.8-5,1.68Z"/><path d="M130.06,146.61l-101.36-9c-2.24,0-3.92,1.12-3.92,3.36s1.12,3.92,3.36,3.92l101.36,9c2.24,0,3.92-1.12,3.92-3.36C133.42,148.85,131.74,147.17,130.06,146.61Z"/><path d="M28.7,137.65l101.36,9c2.24,0,3.36,1.68,3.36,3.93s-1.68,3.35-3.92,3.35l-101.36-9c-2.24,0-3.36-1.68-3.36-3.92A3.74,3.74,0,0,1,28.7,137.65Z"/><path d="M28.14,144.93l101.36,9c2.24,0,3.92-1.12,3.92-3.36s-1.12-3.92-3.36-3.92l-101.36-9c-2.23,0-3.92,1.12-3.92,3.36S25.9,144.93,28.14,144.93Z"/><path d="M170.38,118.05,78.54,74.93c-1.68-1.12-2.8-2.8-1.68-5,1.12-1.68,2.8-2.8,5-1.68l91.84,43.12c1.68,1.12,2.8,2.8,1.68,5s-3.36,2.8-5,1.68Z"/><path d="M159.74,127,64,92.29a3.54,3.54,0,1,1,2.24-6.72L162,120.29a3.81,3.81,0,0,1,2.24,4.48c-.56,2.24-2.24,3.36-4.48,2.24Z"/><path d="M149.66,136.53l-98-26.32a4.43,4.43,0,0,1-2.8-4.48,4.43,4.43,0,0,1,4.48-2.8l98,26.33a4.42,4.42,0,0,1,2.8,4.48c-.56,1.68-2.8,2.79-4.48,2.79Z"/><path d="M139.58,144.93,39.34,127c-1.68-.56-3.36-2.24-2.8-3.92s2.24-3.36,3.92-2.8L140.7,138.21c1.68.56,3.36,2.24,2.8,3.92-.55,2.24-2.24,3.36-3.92,2.8Z"/><path d="M129.5,153.89l-101.36-9c-2.24,0-3.36-1.68-3.36-3.92s1.68-3.36,3.92-3.36l101.36,9c2.24,0,3.36,1.68,3.36,3.92A4.09,4.09,0,0,1,129.5,153.89Z"/><path d="M100.94,194.21l-98,26.32A4.43,4.43,0,0,0,.14,225a4.43,4.43,0,0,0,4.48,2.8l98-26.32a3.74,3.74,0,0,0-1.68-7.28Z"/><path d="M2.94,220.53l98-26.32a3.74,3.74,0,0,1,1.68,7.28l-98,26.32A3.67,3.67,0,0,1,.14,225C.14,223.33,1.26,221.09,2.94,220.53Z"/><path d="M4.62,227.81l98-26.32a3.74,3.74,0,0,0-1.68-7.28l-98,26.32A4.43,4.43,0,0,0,.14,225,3.68,3.68,0,0,0,4.62,227.81Z"/><path d="M129.5,153.89l-101.36-9c-2.24,0-3.36-1.68-3.36-3.92s1.68-3.36,3.92-3.36l101.36,9c2.24,0,3.36,1.68,3.36,3.92A4.09,4.09,0,0,1,129.5,153.89Z"/><path d="M122.78,165.65H20.86a3.36,3.36,0,0,1,0-6.72H122.22a3.23,3.23,0,0,1,3.36,3.36c.56,1.68-.56,3.36-2.8,3.36Z"/><path d="M116.06,178l-101.36,9c-2.24,0-3.92-1.12-3.92-3.36s1.12-3.92,3.36-3.92l101.36-9c2.24,0,3.92,1.12,3.92,3.36C119.42,175.73,118.3,178,116.06,178Z"/><path d="M109.34,189.73,9.66,207.65a3.41,3.41,0,1,1-1.12-6.72L108.78,183a3.29,3.29,0,0,1,3.92,2.8,4.09,4.09,0,0,1-3.36,3.92Z"/><path d="M103.18,201.49,4.62,227.81a3.74,3.74,0,0,1-1.68-7.28l98-26.32a3.67,3.67,0,0,1,4.48,2.8,3.81,3.81,0,0,1-2.24,4.48Z"/><path d="M90.3,249.09,6.86,307.89a3.65,3.65,0,1,0,3.92,6.16l83.44-58.23a3.65,3.65,0,0,0,1.12-5c-1.12-2.25-3.36-2.81-5-1.69Z"/><path d="M6.86,307.89,90.3,249.65a3.65,3.65,0,0,1,3.92,6.16L11.34,313.49a3.65,3.65,0,0,1-5-1.12c-1.12-1.12-.56-3.36.56-4.48Z"/><path d="M11.34,313.49l83.44-58.24a3.65,3.65,0,0,0-3.92-6.16l-84,58.81a3.64,3.64,0,0,0-1.12,5c1.68,1.13,3.92,1.68,5.6.56Z"/><path d="M103.18,201.49,4.62,227.81a3.74,3.74,0,0,1-1.68-7.28l98-26.32a3.67,3.67,0,0,1,4.48,2.8,3.54,3.54,0,0,1-2.24,4.48Z"/><path d="M100.94,214.93,5.18,249.65A3.81,3.81,0,0,1,.7,247.41a3.81,3.81,0,0,1,2.24-4.48L98.7,208.21a3.54,3.54,0,1,1,2.24,6.72Z"/><path d="M98.7,228.93,6.86,271.49c-1.68,1.12-3.92,0-5-1.68s0-3.92,1.68-5l91.84-43.12c1.68-1.12,3.92,0,5,1.68a4.35,4.35,0,0,1-1.68,5.6Z"/><path d="M96.46,241.81l-87.92,51a3.65,3.65,0,1,1-3.92-6.16l88.48-51a3.65,3.65,0,0,1,5,1.12c.56,2.24,0,4.48-1.68,5Z"/><path d="M94.78,255.25,11.34,313.49a3.65,3.65,0,1,1-3.92-6.16l83.44-58.24a3.65,3.65,0,0,1,5,1.12A5.37,5.37,0,0,1,94.78,255.25Z"/><path d="M99.26,304.53,41,387.42a3.65,3.65,0,0,0,6.16,3.91l57.68-82.88a3.63,3.63,0,0,0-1.12-5c-1.11-1.13-3.36-.57-4.48,1.11Z"/><path d="M41,387.41,99.26,304a3.65,3.65,0,1,1,6.16,3.92l-58.8,84a3.65,3.65,0,0,1-5,1.12c-1.68-1.68-2.24-3.92-.56-5.6Z"/><path d="M46.62,391.89l58.24-83.44a3.65,3.65,0,1,0-6.16-3.92L41,387.41a3.65,3.65,0,0,0,1.12,5,3,3,0,0,0,4.48-.56Z"/><path d="M94.78,255.25,11.34,313.49a3.65,3.65,0,1,1-3.92-6.16l83.44-58.24a3.65,3.65,0,0,1,5,1.12A5.37,5.37,0,0,1,94.78,255.25Z"/><path d="M97,268.69l-77.84,65c-1.68,1.12-3.92,1.12-5-.56s-1.12-3.92.56-5l77.84-65.52c1.68-1.13,3.92-1.13,5,.55a4.31,4.31,0,0,1-.56,5.6Z"/><path d="M99.82,282.13,28.14,353.81c-1.68,1.68-3.92,1.68-5,0-1.68-1.68-1.68-3.92,0-5l71.68-71.68c1.68-1.68,3.92-1.68,5,0,1.12,1.12,1.12,3.36,0,5Z"/><path d="M102.62,295.57,37.1,373.41c-1.12,1.68-3.36,1.68-5,.56s-1.68-3.36-.56-5L97,291.09c1.12-1.68,3.36-1.68,5-.56s1.68,3.36.56,5Z"/><path d="M104.86,308.45,46.62,391.89A3.65,3.65,0,0,1,40.46,388L98.7,304.53a3.65,3.65,0,1,1,6.16,3.92Z"/><path d="M126.14,353.25l-26.32,98a3.74,3.74,0,0,0,7.28,1.68l26.32-98a3.68,3.68,0,0,0-2.8-4.48,4.43,4.43,0,0,0-4.48,2.8Z"/><path d="M99.82,451.25l26.32-98a3.74,3.74,0,1,1,7.28,1.68l-26.32,98a4.43,4.43,0,0,1-4.48,2.8A3.46,3.46,0,0,1,99.82,451.25Z"/><path d="M106.54,453.49l26.32-98a3.74,3.74,0,0,0-7.28-1.68L99.82,451.25a3.67,3.67,0,0,0,2.8,4.48,3.19,3.19,0,0,0,3.92-2.24Z"/><path d="M104.86,308.45,46.62,391.89A3.65,3.65,0,0,1,40.46,388L98.7,304.53a3.66,3.66,0,0,1,5-1.12C106,305.09,106,307.33,104.86,308.45Z"/><path d="M112.14,320.21l-51,87.92A3.65,3.65,0,1,1,55,404.22l51-87.93a3.66,3.66,0,0,1,5-1.12A5.37,5.37,0,0,1,112.14,320.21Z"/><path d="M118.86,332,75.74,423.81c-1.12,1.68-2.8,2.8-5,1.68-1.68-1.12-2.8-2.8-1.68-5l43.12-91.84c1.12-1.68,2.8-2.8,5-1.68S120,330.29,118.86,332Z"/><path d="M126.14,343.73,91.42,439.49a3.54,3.54,0,0,1-6.72-2.24l34.72-95.76a3.54,3.54,0,1,1,6.72,2.24Z"/><path d="M132.86,354.93l-26.32,98a4.43,4.43,0,0,1-4.48,2.8,4.43,4.43,0,0,1-2.8-4.48l26.88-98a4.43,4.43,0,0,1,4.48-2.8,3.81,3.81,0,0,1,2.24,4.48Z"/><path d="M126.14,353.25l-26.32,98a3.74,3.74,0,0,0,7.28,1.68l26.32-98a3.68,3.68,0,0,0-2.8-4.48,4.43,4.43,0,0,0-4.48,2.8Z"/><path d="M99.82,451.25l26.32-98a3.74,3.74,0,1,1,7.28,1.68l-26.32,98a4.43,4.43,0,0,1-4.48,2.8A3.46,3.46,0,0,1,99.82,451.25Z"/><path d="M106.54,453.49l26.32-98a3.74,3.74,0,0,0-7.28-1.68L99.82,451.25a3.67,3.67,0,0,0,2.8,4.48,3.19,3.19,0,0,0,3.92-2.24Z"/><path d="M126.14,343.73,91.42,439.49a3.54,3.54,0,0,1-6.72-2.24l34.72-95.76a3.54,3.54,0,1,1,6.72,2.24Z"/><path d="M132.86,354.93l-26.32,98a4.43,4.43,0,0,1-4.48,2.8,4.43,4.43,0,0,1-2.8-4.48l26.88-98a4.43,4.43,0,0,1,4.48-2.8,3.81,3.81,0,0,1,2.24,4.48Z"/><path d="M168.14,389.65l9,101.36c0,2.24,1.68,3.36,3.92,3.36s3.36-1.68,3.36-3.92l-9-101.36c0-2.24-1.68-3.36-3.92-3.36C169.26,386.29,167.58,388,168.14,389.65Z"/><path d="M177.1,491l-9-101.36c0-2.24,1.12-3.92,3.36-3.92s3.92,1.12,3.92,3.36l8.4,101.36c0,2.24-1.12,3.92-3.35,3.92A3.24,3.24,0,0,1,177.1,491Z"/><path d="M183.82,490.45l-9-101.36c0-2.24-1.68-3.36-3.92-3.36s-3.36,1.68-3.36,3.92l9,101.36c0,2.24,1.68,3.36,3.92,3.36S184.38,492.69,183.82,490.45Z"/><path d="M132.86,354.93l-26.32,98a4.43,4.43,0,0,1-4.48,2.8,4.43,4.43,0,0,1-2.8-4.48l26.88-98a4.43,4.43,0,0,1,4.48-2.8,3.81,3.81,0,0,1,2.24,4.48Z"/><path d="M143.5,363.89,125.58,464.13c-.56,1.68-2.24,3.36-3.92,2.8s-3.36-2.24-2.8-3.92l17.92-100.24c.56-1.68,2.24-3.36,3.92-2.8A3.05,3.05,0,0,1,143.5,363.89Z"/><path d="M154.14,372.29l-9,101.36c0,2.24-1.68,3.36-3.92,3.36s-3.36-1.68-3.36-3.92l9-101.36c0-2.24,1.68-3.36,3.92-3.36s3.92,2.24,3.36,3.92Z"/><path d="M164.78,380.69V482.05a3.36,3.36,0,0,1-6.72,0V380.69a3.23,3.23,0,0,1,3.36-3.36,3.61,3.61,0,0,1,3.36,3.36Z"/><path d="M175.42,389.09l8.4,101.36c0,2.24-1.12,3.92-3.36,3.92s-3.92-1.12-3.92-3.36l-9-101.36c0-2.23,1.12-3.92,3.36-3.92A4.88,4.88,0,0,1,175.42,389.09Z"/><path d="M220.22,409.81l43.12,91.84c1.12,1.68,2.8,2.8,5,1.68,1.68-1.12,2.8-2.8,1.68-5l-43.12-91.84c-1.12-1.68-2.8-2.8-5-1.68-1.68,1.12-2.8,3.36-1.68,5Z"/><path d="M263.34,502.21l-43.12-91.84c-1.12-1.68,0-3.92,1.68-5s3.92,0,5,1.68l42.56,91.84c1.12,1.68,0,3.92-1.68,5a3.1,3.1,0,0,1-4.48-1.68Z"/><path d="M269.5,498.85,226.38,407c-1.12-1.68-2.8-2.8-5-1.68-1.68,1.12-2.8,2.8-1.68,5l43.12,91.84c1.12,1.68,2.8,2.8,5,1.68a3.53,3.53,0,0,0,1.68-5Z"/><path d="M175.42,389.65l9,101.36c0,2.24-1.12,3.92-3.36,3.92s-3.92-1.12-3.92-3.36l-9-101.36c0-2.23,1.12-3.92,3.36-3.92C173.74,385.73,175.42,387.41,175.42,389.65Z"/><path d="M188.3,393.57l17.92,100.24a3.41,3.41,0,1,1-6.72,1.12L181.58,394.69a3.29,3.29,0,0,1,2.8-3.92A4.21,4.21,0,0,1,188.3,393.57Z"/><path d="M201.18,398.05l26.32,98a3.74,3.74,0,0,1-7.28,1.68l-26.32-98a3.68,3.68,0,0,1,2.8-4.48,4.43,4.43,0,0,1,4.48,2.8Z"/><path d="M214.06,402.53l34.72,95.76a3.54,3.54,0,0,1-6.72,2.25l-34.72-95.77a3.54,3.54,0,0,1,6.72-2.24Z"/><path d="M226.94,407l42.56,91.84c1.12,1.68,0,3.92-1.68,5s-3.92,0-5-1.68l-43.12-91.84c-1.12-1.68,0-3.92,1.68-5a4.36,4.36,0,0,1,5.6,1.68Z"/></svg>